<svg width="50" height="50" viewBox="0 0 50 50" fill="none" xmlns="http://www.w3.org/2000/svg">
<path d="M25 50C38.8071 50 50 38.8071 50 25C50 11.1929 38.8071 0 25 0C11.1929 0 0 11.1929 0 25C0 38.8071 11.1929 50 25 50Z" fill="white"/>
<path d="M25 49.5C38.531 49.5 49.5 38.531 49.5 25C49.5 11.469 38.531 0.5 25 0.5C11.469 0.5 0.5 11.469 0.5 25C0.5 38.531 11.469 49.5 25 49.5Z" stroke="#E6E6E6"/>
<path d="M18.876 27.295L18.11 30.153L15.31 30.212C14.4633 28.6351 14.0134 26.8758 13.9993 25.086C13.9852 23.2963 14.4073 21.53 15.229 19.94L17.721 20.397L18.814 22.873C18.3231 24.3092 18.345 25.8711 18.876 27.293V27.295Z" fill="#FBBB00"/>
<path d="M35.808 22.945C36.1809 24.9063 36.0129 26.9322 35.3222 28.8053C34.6315 30.6785 33.444 32.3283 31.887 33.578L28.748 33.418L28.304 30.645C29.6002 29.8852 30.5961 28.7033 31.125 27.297H25.243V22.945H35.809H35.808Z" fill="#518EF8"/>
<path d="M31.886 33.578C30.6275 34.5888 29.1619 35.3102 27.5933 35.691C26.0247 36.0718 24.3915 36.1027 22.8096 35.7816C21.2277 35.4604 19.7359 34.795 18.4399 33.8327C17.144 32.8703 16.0758 31.6345 15.311 30.213L18.876 27.295C19.2107 28.1872 19.7362 28.9955 20.4159 29.6634C21.0955 30.3313 21.9128 30.8426 22.8107 31.1617C23.7086 31.4808 24.6653 31.5998 25.614 31.5106C26.5627 31.4213 27.4804 31.1259 28.303 30.645L31.886 33.578Z" fill="#28B446"/>
<path d="M32.021 16.532L28.458 19.45C27.6232 18.93 26.6819 18.6049 25.7042 18.499C24.7264 18.393 23.7373 18.5089 22.8105 18.8381C21.8837 19.1672 21.0431 19.7011 20.3512 20.4001C19.6592 21.099 19.1338 21.945 18.814 22.875L15.231 19.941C15.9867 18.4817 17.0598 17.2102 18.3714 16.22C19.683 15.2298 21.1998 14.5461 22.8103 14.2191C24.4209 13.8921 26.0842 13.9301 27.6781 14.3304C29.272 14.7306 30.756 15.4829 32.021 16.532Z" fill="#F14336"/>
</svg>
