<svg width="178" height="110" viewBox="0 0 178 110" fill="none" xmlns="http://www.w3.org/2000/svg">
<path fill-rule="evenodd" clip-rule="evenodd" d="M29.7726 58.5879L29.7074 60.7476C28.1325 59.8028 26.4207 59.1077 24.633 58.6873C22.6098 58.1813 20.5317 57.9283 18.4462 57.9343C15.565 57.9475 12.7561 58.8373 10.3929 60.4855C7.86251 62.1859 5.78422 64.4768 4.33762 67.1603C2.86599 69.7784 2.08833 72.7293 2.07857 75.7327C2.04495 78.4913 2.79414 81.2029 4.23923 83.553C5.67383 85.8819 7.70983 87.7809 10.1329 89.0501C12.6297 90.3834 15.421 91.0696 18.2514 91.0461C20.1896 91.0137 22.1111 90.6825 23.9483 90.0641C25.8255 89.4922 27.6114 88.6548 29.2515 87.5772V88.4928C29.3239 90.8607 28.7464 93.2031 27.5818 95.266C26.4245 97.2948 24.2967 98.3092 21.1982 98.3092C19.605 98.3423 18.0399 97.8868 16.7132 97.004C16.1049 96.62 15.6032 96.0889 15.2543 95.4598C14.9055 94.8307 14.7208 94.1239 14.7172 93.4045L2.60267 89.4115C2.53128 93.0509 3.39924 96.6472 5.12277 99.8534C6.7423 102.825 9.17132 105.276 12.1279 106.922C15.2879 108.644 18.8422 109.512 22.4402 109.442C27.0239 109.442 30.6247 108.318 33.2425 106.071C35.678 104.086 37.5232 101.472 38.5779 98.512C39.4311 96.1558 39.9275 93.6854 40.0508 91.1826L40.4434 58.5919L29.7726 58.5879ZM19.8217 81.1685C19.0339 81.1825 18.2528 81.0224 17.5341 80.6996C16.8154 80.3767 16.1768 79.8992 15.664 79.301C14.5258 77.9887 13.9289 76.2929 13.9943 74.557C13.925 72.8302 14.5229 71.1429 15.664 69.8451C16.2028 69.2465 16.8655 68.7725 17.6061 68.456C18.3466 68.1396 19.1473 67.9883 19.9522 68.0127C20.7905 67.9937 21.6238 68.1465 22.4008 68.4616C23.1778 68.7767 23.8821 69.2475 24.4704 69.8451C25.0721 70.4434 25.5451 71.1585 25.8604 71.9463C26.1756 72.7342 26.3265 73.5781 26.3037 74.4264C26.3157 76.1857 25.6335 77.8789 24.4051 79.1383C23.8304 79.7843 23.124 80.2997 22.3333 80.6497C21.5427 80.9997 20.6863 81.1763 19.8217 81.1675V81.1685ZM65.519 58.4574L65.4537 73.9023V73.8391C65.5315 75.7568 64.9924 77.649 63.9155 79.2377C63.4514 79.8406 62.8662 80.3398 62.1977 80.7031C61.5292 81.0665 60.7922 81.2861 60.0338 81.3477C59.2754 81.4094 58.5125 81.3117 57.7941 81.0611C57.0757 80.8104 56.4177 80.4124 55.8622 79.8923C54.899 78.7063 54.4195 77.2001 54.5198 75.6754L54.5851 58.3329H42.4715L42.2707 76.3291C42.183 82.0855 43.2744 86.4594 45.5449 89.4507C47.8153 92.442 51.1979 93.936 55.6925 93.9326C57.5797 93.9476 59.4504 93.5801 61.1916 92.8523C62.8008 92.199 64.2354 91.1793 65.3814 89.8744V93.0812H77.8213V58.4574H65.519ZM101.003 58.1954C99.466 58.2055 97.9445 58.5053 96.5183 59.0789C95.0404 59.6505 93.6766 60.4815 92.4911 61.5327V58.5207H80.3143V93.4015H92.4921V80.8391C92.6668 77.0432 93.3321 74.3056 94.4881 72.6262C95.0768 71.7895 95.8707 71.1183 96.7936 70.677C97.7165 70.2357 98.7374 70.0391 99.7582 70.1061C100.771 70.0747 101.775 70.2979 102.678 70.7552C103.582 71.2125 104.357 71.8893 104.931 72.7236L109.449 62.5829C108.38 61.2416 107.042 60.1384 105.521 59.3439C104.13 58.6038 102.58 58.2108 101.003 58.1984V58.1954ZM133.215 58.4574L133.15 73.9023V73.8391C133.228 75.7568 132.689 77.649 131.612 79.2377C131.148 79.8405 130.563 80.3395 129.894 80.7027C129.226 81.066 128.489 81.2855 127.731 81.3472C126.972 81.4088 126.21 81.3112 125.491 81.0607C124.773 80.8102 124.115 80.4122 123.56 79.8923C122.597 78.7062 122.117 77.2001 122.217 75.6754L122.283 58.3329H110.169L109.968 76.3301C109.88 82.0865 110.971 86.4603 113.242 89.4517C115.513 92.443 118.896 93.9367 123.389 93.9326C125.276 93.9479 127.147 93.5808 128.888 92.8533C130.497 92.2001 131.932 91.1804 133.078 89.8754V93.0822H145.518V58.4574H133.215ZM155.404 56.0477C156.05 56.0596 156.69 55.9258 157.277 55.6562C157.864 55.3866 158.382 54.9881 158.794 54.4905C159.693 53.4512 160.174 52.1145 160.142 50.7405C160.193 50.1344 160.11 49.5247 159.901 48.9538C159.692 48.3828 159.36 47.8643 158.93 47.4343C158.5 47.0043 157.982 46.6732 157.411 46.4639C156.84 46.2546 156.23 46.1721 155.624 46.2223C154.972 46.1924 154.321 46.2935 153.708 46.5196C153.096 46.7457 152.535 47.0922 152.059 47.5386C151.609 47.9844 151.257 48.5188 151.025 49.1078C150.793 49.6969 150.686 50.3277 150.711 50.9603C150.694 51.6247 150.808 52.2858 151.047 52.906C151.286 53.5262 151.644 54.0932 152.102 54.5748C152.517 55.0401 153.026 55.4118 153.596 55.6652C154.166 55.9187 154.783 56.048 155.406 56.0447L155.404 56.0477ZM146.181 109.443C150.284 109.443 153.503 108.417 155.838 106.367C158.358 103.993 160.074 100.894 160.749 97.4989C161.777 92.7173 162.228 87.8296 162.091 82.9406L161.961 57.9403L148.932 58.3329L148.802 80.6494V82.547C148.758 85.6448 148.66 88.0444 148.508 89.7458C148.4 91.28 148 92.7795 147.329 94.1636C147.045 94.7545 146.629 95.2717 146.112 95.6748C145.595 96.0778 144.992 96.3558 144.35 96.4869C143.982 96.5567 143.61 96.6003 143.237 96.6174C142.393 96.6285 141.576 96.3253 140.944 95.767L136.885 106.958C139.198 108.615 142.297 109.444 146.182 109.445L146.181 109.443ZM171.364 56.4303C172.003 56.4449 172.637 56.3224 173.223 56.0711C173.81 55.8198 174.336 55.4455 174.766 54.9734C175.686 53.9671 176.174 52.6401 176.126 51.2776C176.154 50.6782 176.056 50.0796 175.84 49.5196C175.625 48.9597 175.295 48.4507 174.872 48.0246C174.433 47.6104 173.915 47.2887 173.349 47.0784C172.783 46.8682 172.18 46.7738 171.577 46.8007C170.212 46.7712 168.885 47.2532 167.856 48.1521C167.361 48.5631 166.965 49.0801 166.696 49.6649C166.428 50.2496 166.294 50.8873 166.305 51.5306C166.305 52.4029 166.564 53.2556 167.049 53.9804C167.53 54.7269 168.187 55.3434 168.963 55.7756C169.693 56.1987 170.521 56.424 171.365 56.4293L171.364 56.4303ZM165.364 93.2077H178V58.5227H164.313L165.364 93.2077Z" fill="white"/>
<path fill-rule="evenodd" clip-rule="evenodd" d="M25.0718 40.5245L13.3166 38.1821L11.8618 44.5346L18.1872 45.7394C17.9462 46.4236 17.4586 46.9933 16.8197 47.3368C16.12 47.7911 15.3442 48.1155 14.5295 48.2947C14.1905 48.364 13.8454 48.3997 13.4994 48.4011C12.1311 48.4033 10.8122 47.89 9.80554 46.9633C9.10219 46.3753 8.53708 45.6395 8.15045 44.8083C7.76381 43.977 7.56514 43.0708 7.56857 42.154C7.56145 40.7789 8.00393 39.4391 8.82863 38.3387C9.59498 37.2409 10.7387 36.4635 12.0415 36.155C12.5664 36.0388 13.1023 35.9793 13.6399 35.9773C14.5145 35.9773 15.3836 36.1152 16.2152 36.3859C16.9734 36.6116 17.6708 37.0056 18.2554 37.5385L22.0195 31.7152C20.9344 30.7769 19.6547 30.0911 18.2725 29.7071C16.7349 29.2443 15.1373 29.0111 13.5315 29.0153C12.5421 29.0172 11.5552 29.1124 10.5837 29.2995C8.56122 29.7309 6.67274 30.6439 5.07859 31.9612C3.49867 33.2666 2.22489 34.9032 1.34734 36.7553C0.469791 38.6074 0.00990987 40.6297 0.000225311 42.6791C-0.00493311 43.5491 0.0784962 44.4174 0.249223 45.2705C0.685687 47.3257 1.60454 49.2478 2.92997 50.878C4.23847 52.5115 5.89438 53.833 7.77741 54.7465C9.62159 55.6579 11.6511 56.1317 13.7082 56.1311C14.5798 56.1265 15.4486 56.0313 16.3006 55.8469C18.0859 55.4753 19.7551 54.6779 21.1661 53.5226C22.5926 52.3734 23.7502 50.9259 24.5577 49.2816C25.3547 47.7079 25.7741 45.9702 25.7826 44.2063C25.7983 42.9405 25.5564 41.6848 25.0718 40.5155V40.5245ZM37.608 36.9753C36.7742 36.9808 35.9489 37.1432 35.1753 37.4542C34.374 37.7641 33.6344 38.2146 32.9915 38.7845V37.152H26.386V56.0678H32.9915V49.2535C32.9525 47.6992 33.3263 46.1624 34.0749 44.7996C34.3943 44.346 34.8249 43.9821 35.3255 43.7428C35.826 43.5035 36.3797 43.3969 36.9333 43.4331C37.4823 43.4164 38.0267 43.5376 38.5168 43.7856C39.0069 44.0336 39.4269 44.4006 39.7386 44.8528L42.1894 39.3518C41.6093 38.6241 40.8836 38.0257 40.0589 37.5947C39.3042 37.1934 38.4638 36.9802 37.609 36.9733L37.608 36.9753ZM61.5791 56.0688L60.7669 37.2232H54.8672V38.7494C54.3209 38.1733 53.6453 37.7355 52.8963 37.4722C52.0613 37.1614 51.1768 37.0049 50.2859 37.0104C48.6508 36.9957 47.0426 37.4273 45.6347 38.2588C44.2267 39.0904 43.0723 40.2903 42.2958 41.7293C41.4857 43.2207 41.0709 44.8947 41.091 46.5918C41.0739 48.273 41.4767 49.9319 42.2627 51.4182C42.9986 52.8356 44.0871 54.0395 45.4234 54.9142C46.7077 55.7656 48.2159 56.2163 49.7567 56.2094C50.7484 56.2099 51.733 56.0418 52.6684 55.7124C53.536 55.4256 54.3428 54.9803 55.048 54.3991L55.0831 56.0668H61.5801L61.5791 56.0688ZM50.9606 50.3549C50.3468 50.3485 49.7482 50.1636 49.2377 49.8228C48.6794 49.466 48.2162 48.9788 47.8882 48.4031C47.558 47.8576 47.3801 47.2335 47.3732 46.5958C47.3701 46.0998 47.473 45.6089 47.6751 45.1559C47.8772 44.7029 48.1737 44.2984 48.5449 43.9693C49.275 43.2546 50.2582 42.8576 51.2798 42.8649C51.7198 42.8533 52.1574 42.9342 52.5641 43.1023C52.9709 43.2704 53.3379 43.522 53.6413 43.8408C53.9518 44.1631 54.1949 44.5441 54.3564 44.9614C54.5179 45.3788 54.5947 45.8242 54.5821 46.2715C54.5836 46.9721 54.4111 47.6621 54.0801 48.2796C53.7647 48.8875 53.3005 49.4056 52.7307 49.7856C52.2094 50.1497 51.5903 50.3477 50.9545 50.3539L50.9606 50.3549ZM74.5763 36.7614C73.5286 36.7611 72.4911 36.9657 71.522 37.3638C70.4667 37.7566 69.4831 38.32 68.6103 39.0315L68.3613 37.151L62.5731 37.1158V58.0437H69.6013L69.282 54.7907C70.634 55.4737 72.1369 55.8033 73.6505 55.7485C75.1887 55.7785 76.6956 55.312 77.9478 54.4182C79.21 53.4916 80.1978 52.2405 80.8062 50.7977C81.4927 49.214 81.8376 47.5035 81.8183 45.7776C81.9111 43.4937 81.2222 41.2465 79.8655 39.407C79.2423 38.5933 78.4419 37.9324 77.5251 37.4743C76.6083 37.0162 75.5991 36.7731 74.5743 36.7634L74.5763 36.7614ZM72.9437 49.9643C72.4391 49.969 71.9386 49.8724 71.472 49.6803C71.0053 49.4881 70.5819 49.2044 70.2268 48.8459C69.8605 48.5102 69.5685 48.1016 69.3696 47.6463C69.1707 47.191 69.0694 46.6991 69.0722 46.2023C69.0608 45.7519 69.1451 45.3042 69.3196 44.8888C69.494 44.4734 69.7547 44.0998 70.0842 43.7926C70.77 43.1496 71.6829 42.8051 72.6224 42.8348C73.0902 42.8156 73.5568 42.8958 73.9914 43.0701C74.4259 43.2443 74.8186 43.5087 75.1435 43.8458C75.8045 44.5774 76.1492 45.5407 76.1024 46.5255C76.1533 47.4472 75.8408 48.352 75.2319 49.0457C74.9372 49.3524 74.5808 49.593 74.1861 49.7515C73.7915 49.9101 73.3677 49.983 72.9427 49.9654L72.9437 49.9643ZM103.165 56.0698L103.094 45.4583C103.196 43.1534 102.499 40.8839 101.123 39.0325C100.502 38.2575 99.7075 37.6388 98.8041 37.226C97.9008 36.8131 96.9133 36.6175 95.9208 36.655C94.7332 36.6609 93.56 36.9147 92.476 37.4C91.4206 37.8398 90.4748 38.5065 89.7059 39.3528L89.5282 27.4631H82.7812L83.2771 55.9262L89.9539 56.0327L89.8114 45.5617C90.0097 44.7953 90.4616 44.1186 91.0934 43.6417C91.7253 43.1648 92.4999 42.9158 93.2913 42.9351C93.73 42.9115 94.169 42.9745 94.5834 43.1206C94.9977 43.2666 95.3792 43.493 95.706 43.7866C96.0093 44.0934 96.245 44.4603 96.3978 44.8638C96.5507 45.2672 96.6174 45.6982 96.5935 46.129V56.0688L103.165 56.0698ZM104.269 55.9634H111.124V38.2273C109.576 38.2634 108.029 38.1626 106.499 37.9261C105.557 37.7602 104.623 37.5467 103.702 37.2865L104.269 55.9634ZM121.705 56.3178C123.218 56.2936 124.705 55.9321 126.06 55.2597C127.415 54.5873 128.603 53.621 129.537 52.4312C130.382 51.3784 130.851 50.0727 130.868 48.7224L124.973 48.1541C124.723 48.7138 124.308 49.1841 123.784 49.5025C123.262 49.8472 122.651 50.0321 122.026 50.0346C121.39 50.0288 120.768 49.8444 120.232 49.5025C119.661 49.1579 119.18 48.6836 118.827 48.1179C118.487 47.6013 118.302 46.9983 118.294 46.38C118.299 45.924 118.401 45.4745 118.594 45.0614C118.787 44.6482 119.066 44.2811 119.412 43.9844C120.088 43.3148 121 42.9385 121.951 42.9372C122.624 42.933 123.28 43.1515 123.816 43.5586C124.369 43.9691 124.775 44.5484 124.97 45.2093L130.936 44.6771C130.928 43.2566 130.44 41.8806 129.551 40.7725C128.596 39.5406 127.36 38.555 125.946 37.898C124.537 37.2047 122.989 36.8408 121.418 36.8337C119.751 36.817 118.111 37.2588 116.677 38.1108C115.244 38.9607 114.058 40.1715 113.239 41.6224C112.42 43.0733 111.995 44.7137 112.007 46.38C112 48.1076 112.454 49.8059 113.322 51.2997C114.173 52.8017 115.395 54.0606 116.871 54.9564C118.321 55.8556 119.994 56.3291 121.7 56.3228L121.705 56.3178ZM147.132 39.7434C146.007 38.7801 144.729 38.0121 143.35 37.4713C142.035 36.9408 140.631 36.6638 139.212 36.655C137.862 36.6499 136.527 36.947 135.306 37.5245C134.155 38.0416 133.145 38.8265 132.359 39.8136C131.673 40.6484 131.286 41.6891 131.26 42.7695C131.234 43.8499 131.571 44.9079 132.216 45.7745C132.871 46.6906 133.743 47.4304 134.753 47.9282C135.792 48.459 136.942 48.7344 138.109 48.7314C138.323 48.736 138.537 48.7243 138.749 48.6963C139.311 48.6697 139.874 48.7297 140.418 48.874C140.558 48.9026 140.684 48.9778 140.775 49.0873C140.866 49.1967 140.917 49.3339 140.92 49.4764C140.92 49.8311 140.666 50.1323 140.157 50.38C139.572 50.6442 138.934 50.7715 138.293 50.7525C137.529 50.7515 136.771 50.6134 136.056 50.3449C135.34 50.0837 134.678 49.693 134.103 49.1922L130.517 53.2365C131.438 54.2714 132.595 55.0688 133.89 55.5608C135.311 56.1404 136.831 56.4358 138.365 56.4303C139.88 56.4458 141.38 56.1184 142.751 55.4724C144.014 54.894 145.113 54.0095 145.947 52.8991C146.72 51.8841 147.138 50.6435 147.137 49.368C147.165 48.5907 146.992 47.8195 146.636 47.1279C146.281 46.4364 145.753 45.8477 145.105 45.4181C143.412 44.3787 141.442 43.8832 139.458 43.9984C137.801 43.9984 136.972 43.7026 136.972 43.1109C136.972 42.7795 137.203 42.5074 137.665 42.2946C138.222 42.0635 138.821 41.9546 139.423 41.9753C140.233 41.9841 141.036 42.1217 141.803 42.3829C142.788 42.7258 143.739 43.1594 144.644 43.6781L147.132 39.7434Z" fill="white"/>
<path fill-rule="evenodd" clip-rule="evenodd" d="M103.976 36.152C103.976 36.152 95.4268 -1.23194 134.814 1.00403C134.814 1.00403 138.221 1.18073 140.274 0C140.274 0 139.62 0.785148 140.073 5.02013C140.072 5.02113 143.539 43.5014 103.976 36.152Z" fill="white"/>
</svg>
